<?xml version="1.0" encoding="UTF-8" standalone="no"?>
<!DOCTYPE svg PUBLIC "-//W3C//DTD SVG 1.1//EN"
 "http://www.w3.org/Graphics/SVG/1.1/DTD/svg11.dtd">
<!-- Generated by graphviz version 14.1.2 (0)
 -->
<!-- Title: ReferenceDirection Pages: 1 -->
<svg width="566pt" height="342pt"
 viewBox="0.00 0.00 566.00 342.00" xmlns="http://www.w3.org/2000/svg" xmlns:xlink="http://www.w3.org/1999/xlink">
<g id="graph0" class="graph" transform="scale(1 1) rotate(0) translate(4 338)">
<title>ReferenceDirection</title>
<polygon fill="white" stroke="none" points="-4,4 -4,-338 561.5,-338 561.5,4 -4,4"/>
<!-- src -->
<g id="node1" class="node">
<title>src</title>
<polygon fill="#f1f3f4" stroke="#5f6368" points="199.75,-334 12.75,-334 12.75,-298 199.75,-298 199.75,-334"/>
<text xml:space="preserve" text-anchor="middle" x="106.25" y="-311.32" font-family="sans-serif" font-size="14.00">Referring Entity (Source)</text>
</g>
<!-- outRef -->
<g id="node3" class="node">
<title>outRef</title>
<polygon fill="#f1f3f4" stroke="#5f6368" points="212.5,-249.25 0,-249.25 0,-206.75 212.5,-206.75 212.5,-249.25"/>
<text xml:space="preserve" text-anchor="middle" x="106.25" y="-231.95" font-family="sans-serif" font-size="14.00">Specific Outgoing Reference</text>
<text xml:space="preserve" text-anchor="middle" x="106.25" y="-214.7" font-family="sans-serif" font-size="14.00">(A Single Need)</text>
</g>
<!-- src&#45;&gt;outRef -->
<g id="edge1" class="edge">
<title>src&#45;&gt;outRef</title>
<path fill="none" stroke="#5f6368" stroke-dasharray="5,2" d="M106.25,-297.6C106.25,-287.11 106.25,-273.42 106.25,-261.04"/>
<polygon fill="#5f6368" stroke="#5f6368" points="109.75,-261.23 106.25,-251.23 102.75,-261.23 109.75,-261.23"/>
<text xml:space="preserve" text-anchor="middle" x="134.38" y="-270.5" font-family="sans-serif" font-size="10.00" fill="#5f6368"> Generates </text>
</g>
<!-- dst -->
<g id="node2" class="node">
<title>dst</title>
<polygon fill="#f1f3f4" stroke="#5f6368" points="552.62,-334 319.88,-334 319.88,-298 552.62,-298 552.62,-334"/>
<text xml:space="preserve" text-anchor="middle" x="436.25" y="-311.32" font-family="sans-serif" font-size="14.00">Referenced Entity (Destination)</text>
</g>
<!-- inRef -->
<g id="node4" class="node">
<title>inRef</title>
<polygon fill="#f1f3f4" stroke="#5f6368" points="557.5,-249.25 315,-249.25 315,-206.75 557.5,-206.75 557.5,-249.25"/>
<text xml:space="preserve" text-anchor="middle" x="436.25" y="-231.95" font-family="sans-serif" font-size="14.00">Exhaustive Incoming References</text>
<text xml:space="preserve" text-anchor="middle" x="436.25" y="-214.7" font-family="sans-serif" font-size="14.00">(All Possibilities)</text>
</g>
<!-- dst&#45;&gt;inRef -->
<g id="edge2" class="edge">
<title>dst&#45;&gt;inRef</title>
<path fill="none" stroke="#5f6368" stroke-dasharray="5,2" d="M436.25,-297.6C436.25,-287.11 436.25,-273.42 436.25,-261.04"/>
<polygon fill="#5f6368" stroke="#5f6368" points="439.75,-261.23 436.25,-251.23 432.75,-261.23 439.75,-261.23"/>
<text xml:space="preserve" text-anchor="middle" x="464.38" y="-270.5" font-family="sans-serif" font-size="10.00" fill="#5f6368"> Generates </text>
</g>
<!-- eq -->
<g id="node5" class="node">
<title>eq</title>
<polygon fill="#e8f0fe" stroke="#1a73e8" points="271.25,-169.75 107.5,-127.25 271.25,-84.75 435,-127.25 271.25,-169.75"/>
<text xml:space="preserve" text-anchor="middle" x="271.25" y="-131.2" font-family="sans-serif" font-size="14.00">Found In Set?</text>
<text xml:space="preserve" text-anchor="middle" x="271.25" y="-113.95" font-family="sans-serif" font-size="14.00">(Need ∈ Possibilities)</text>
</g>
<!-- outRef&#45;&gt;eq -->
<g id="edge3" class="edge">
<title>outRef&#45;&gt;eq:w</title>
<path fill="none" stroke="#5f6368" d="M97.82,-206.33C88.55,-181.22 77.02,-140.87 93.86,-130.01"/>
<polygon fill="#5f6368" stroke="#5f6368" points="94.27,-133.52 103.08,-127.63 92.52,-126.74 94.27,-133.52"/>
</g>
<!-- inRef&#45;&gt;eq -->
<g id="edge4" class="edge">
<title>inRef&#45;&gt;eq:e</title>
<path fill="none" stroke="#5f6368" d="M444.68,-206.33C453.95,-181.22 465.48,-140.87 448.64,-130.01"/>
<polygon fill="#5f6368" stroke="#5f6368" points="449.98,-126.74 439.42,-127.63 448.23,-133.52 449.98,-126.74"/>
</g>
<!-- match -->
<g id="node6" class="node">
<title>match</title>
<polygon fill="#e6f4ea" stroke="#137333" points="368.88,-36 173.62,-36 173.62,0 368.88,0 368.88,-36"/>
<text xml:space="preserve" text-anchor="middle" x="271.25" y="-13.32" font-family="sans-serif" font-size="14.00">Valid Target For This Need</text>
</g>
<!-- eq&#45;&gt;match -->
<g id="edge5" class="edge">
<title>eq&#45;&gt;match</title>
<path fill="none" stroke="#5f6368" d="M271.25,-84.48C271.25,-72.21 271.25,-59.07 271.25,-47.81"/>
<polygon fill="#5f6368" stroke="#5f6368" points="274.75,-47.97 271.25,-37.97 267.75,-47.97 274.75,-47.97"/>
<text xml:space="preserve" text-anchor="middle" x="282.12" y="-57.25" font-family="sans-serif" font-size="10.00" fill="#137333"> Yes </text>
</g>
</g>
</svg>
