<?xml version="1.0" encoding="UTF-8" standalone="no"?>
<!DOCTYPE svg PUBLIC "-//W3C//DTD SVG 1.1//EN"
 "http://www.w3.org/Graphics/SVG/1.1/DTD/svg11.dtd">
<!-- Generated by graphviz version 14.1.2 (0)
 -->
<!-- Title: IllegalInsert Pages: 1 -->
<svg width="414pt" height="108pt"
 viewBox="0.00 0.00 414.00 108.00" xmlns="http://www.w3.org/2000/svg" xmlns:xlink="http://www.w3.org/1999/xlink">
<g id="graph0" class="graph" transform="scale(1 1) rotate(0) translate(4 104)">
<title>IllegalInsert</title>
<polygon fill="white" stroke="none" points="-4,4 -4,-104 410.2,-104 410.2,4 -4,4"/>
<g id="clust1" class="cluster">
<title>cluster_illegal_insert</title>
<path fill="#fce8e6" stroke="#c5221f" d="M20,-8C20,-8 386.2,-8 386.2,-8 392.2,-8 398.2,-14 398.2,-20 398.2,-20 398.2,-80 398.2,-80 398.2,-86 392.2,-92 386.2,-92 386.2,-92 20,-92 20,-92 14,-92 8,-86 8,-80 8,-80 8,-20 8,-20 8,-14 14,-8 20,-8"/>
<text xml:space="preserve" text-anchor="middle" x="203.1" y="-74.7" font-family="sans-serif" font-size="14.00">Illegal Insert / Modify</text>
</g>
<!-- A2 -->
<g id="node1" class="node">
<title>A2</title>
<polygon fill="#f1f3f4" stroke="#5f6368" points="131.2,-58.25 16,-58.25 16,-15.75 131.2,-15.75 131.2,-58.25"/>
<text xml:space="preserve" text-anchor="middle" x="73.6" y="-40.95" font-family="sans-serif" font-size="14.00">Entry A</text>
<text xml:space="preserve" text-anchor="middle" x="73.6" y="-23.7" font-family="sans-serif" font-size="14.00">(Source)</text>
</g>
<!-- B2 -->
<g id="node2" class="node">
<title>B2</title>
<polygon fill="#f1f3f4" stroke="#5f6368" stroke-dasharray="5,2" points="390.2,-55 265.45,-55 265.45,-19 390.2,-19 390.2,-55"/>
<text xml:space="preserve" text-anchor="middle" x="327.83" y="-32.33" font-family="sans-serif" font-size="14.00" fill="#5f6368">Missing Entry B</text>
</g>
<!-- A2&#45;&gt;B2 -->
<g id="edge1" class="edge">
<title>A2&#45;&gt;B2</title>
<path fill="none" stroke="#c5221f" d="M131.52,-37C167.75,-37 215.02,-37 253.99,-37"/>
<polygon fill="#c5221f" stroke="#c5221f" points="253.75,-40.5 263.75,-37 253.75,-33.5 253.75,-40.5"/>
<text xml:space="preserve" text-anchor="middle" x="198.33" y="-40.95" font-family="sans-serif" font-size="14.00" fill="#c5221f"> dangling ref! </text>
</g>
</g>
</svg>
