<?xml version="1.0" encoding="UTF-8" standalone="no"?>
<!DOCTYPE svg PUBLIC "-//W3C//DTD SVG 1.1//EN"
 "http://www.w3.org/Graphics/SVG/1.1/DTD/svg11.dtd">
<!-- Generated by graphviz version 14.1.2 (0)
 -->
<!-- Title: IllegalDelete Pages: 1 -->
<svg width="400pt" height="108pt"
 viewBox="0.00 0.00 400.00 108.00" xmlns="http://www.w3.org/2000/svg" xmlns:xlink="http://www.w3.org/1999/xlink">
<g id="graph0" class="graph" transform="scale(1 1) rotate(0) translate(4 104)">
<title>IllegalDelete</title>
<polygon fill="white" stroke="none" points="-4,4 -4,-104 395.95,-104 395.95,4 -4,4"/>
<g id="clust1" class="cluster">
<title>cluster_illegal_delete</title>
<path fill="#fce8e6" stroke="#c5221f" d="M20,-8C20,-8 371.95,-8 371.95,-8 377.95,-8 383.95,-14 383.95,-20 383.95,-20 383.95,-80 383.95,-80 383.95,-86 377.95,-92 371.95,-92 371.95,-92 20,-92 20,-92 14,-92 8,-86 8,-80 8,-80 8,-20 8,-20 8,-14 14,-8 20,-8"/>
<text xml:space="preserve" text-anchor="middle" x="195.98" y="-74.7" font-family="sans-serif" font-size="14.00">Illegal Delete</text>
</g>
<!-- A3 -->
<g id="node1" class="node">
<title>A3</title>
<polygon fill="#f1f3f4" stroke="#5f6368" points="131.2,-58.25 16,-58.25 16,-15.75 131.2,-15.75 131.2,-58.25"/>
<text xml:space="preserve" text-anchor="middle" x="73.6" y="-40.95" font-family="sans-serif" font-size="14.00">Entry A</text>
<text xml:space="preserve" text-anchor="middle" x="73.6" y="-23.7" font-family="sans-serif" font-size="14.00">(Source)</text>
</g>
<!-- B3 -->
<g id="node2" class="node">
<title>B3</title>
<polygon fill="#fad2cf" stroke="#5f6368" points="375.95,-55 245.95,-55 245.95,-19 375.95,-19 375.95,-55"/>
<text xml:space="preserve" text-anchor="middle" x="310.95" y="-32.33" font-family="sans-serif" font-size="14.00">Deleting Entry B</text>
</g>
<!-- A3&#45;&gt;B3 -->
<g id="edge1" class="edge">
<title>A3&#45;&gt;B3</title>
<path fill="none" stroke="#c5221f" d="M131.57,-37C162.49,-37 201.12,-37 234.51,-37"/>
<polygon fill="#c5221f" stroke="#c5221f" points="234.1,-40.5 244.1,-37 234.1,-33.5 234.1,-40.5"/>
<text xml:space="preserve" text-anchor="middle" x="188.58" y="-40.95" font-family="sans-serif" font-size="14.00" fill="#c5221f"> active ref! </text>
</g>
</g>
</svg>
