<?xml version="1.0" encoding="UTF-8" standalone="no"?>
<!DOCTYPE svg PUBLIC "-//W3C//DTD SVG 1.1//EN"
 "http://www.w3.org/Graphics/SVG/1.1/DTD/svg11.dtd">
<!-- Generated by graphviz version 14.1.2 (0)
 -->
<!-- Title: IncomingReferences Pages: 1 -->
<svg width="566pt" height="646pt"
 viewBox="0.00 0.00 566.00 646.00" xmlns="http://www.w3.org/2000/svg" xmlns:xlink="http://www.w3.org/1999/xlink">
<g id="graph0" class="graph" transform="scale(1 1) rotate(0) translate(4 642)">
<title>IncomingReferences</title>
<polygon fill="white" stroke="none" points="-4,4 -4,-642 561.6,-642 561.6,4 -4,4"/>
<g id="clust1" class="cluster">
<title>cluster_entry_b</title>
<path fill="#f1f3f4" stroke="#bdc1c6" d="M20,-235C20,-235 256.8,-235 256.8,-235 262.8,-235 268.8,-241 268.8,-247 268.8,-247 268.8,-391 268.8,-391 268.8,-397 262.8,-403 256.8,-403 256.8,-403 20,-403 20,-403 14,-403 8,-397 8,-391 8,-391 8,-247 8,-247 8,-241 14,-235 20,-235"/>
<text xml:space="preserve" text-anchor="middle" x="138.4" y="-387.6" font-family="sans-serif" font-size="12.00" fill="#5f6368">Table Entry B</text>
</g>
<g id="clust2" class="cluster">
<title>cluster_in_b</title>
<path fill="#f8f9fa" stroke="#80868b" d="M300.8,-8C300.8,-8 537.6,-8 537.6,-8 543.6,-8 549.6,-14 549.6,-20 549.6,-20 549.6,-618 549.6,-618 549.6,-624 543.6,-630 537.6,-630 537.6,-630 300.8,-630 300.8,-630 294.8,-630 288.8,-624 288.8,-618 288.8,-618 288.8,-20 288.8,-20 288.8,-14 294.8,-8 300.8,-8"/>
<text xml:space="preserve" text-anchor="middle" x="419.2" y="-614.6" font-family="sans-serif" font-size="12.00" fill="#1a73e8">Satisfiable incoming references</text>
</g>
<!-- ActionB -->
<g id="node1" class="node">
<title>ActionB</title>
<path fill="#ffffff" stroke="#5f6368" stroke-width="1.2" d="M248.8,-279C248.8,-279 28,-279 28,-279 22,-279 16,-273 16,-267 16,-267 16,-255 16,-255 16,-249 22,-243 28,-243 28,-243 248.8,-243 248.8,-243 254.8,-243 260.8,-249 260.8,-255 260.8,-255 260.8,-267 260.8,-267 260.8,-273 254.8,-279 248.8,-279"/>
<text xml:space="preserve" text-anchor="middle" x="138.4" y="-257.3" font-family="sans-serif" font-size="11.00">drop</text>
</g>
<!-- InB9 -->
<g id="node3" class="node">
<title>InB9</title>
<path fill="#fce8e6" stroke="#c5221f" stroke-width="1.2" d="M529.6,-52C529.6,-52 308.8,-52 308.8,-52 302.8,-52 296.8,-46 296.8,-40 296.8,-40 296.8,-28 296.8,-28 296.8,-22 302.8,-16 308.8,-16 308.8,-16 529.6,-16 529.6,-16 535.6,-16 541.6,-22 541.6,-28 541.6,-28 541.6,-40 541.6,-40 541.6,-46 535.6,-52 529.6,-52"/>
<text xml:space="preserve" text-anchor="middle" x="419.2" y="-37.05" font-family="sans-serif" font-size="11.00" fill="#c5221f">Group Table A → Table B</text>
<text xml:space="preserve" text-anchor="middle" x="419.2" y="-23.55" font-family="sans-serif" font-size="11.00" fill="#c5221f">vrf_id → vrf_id : 10</text>
</g>
<!-- ActionB&#45;&gt;InB9 -->
<!-- MatchB -->
<g id="node2" class="node">
<title>MatchB</title>
<path fill="#ffffff" stroke="#5f6368" stroke-width="1.2" d="M248.8,-372.75C248.8,-372.75 28,-372.75 28,-372.75 22,-372.75 16,-366.75 16,-360.75 16,-360.75 16,-309.25 16,-309.25 16,-303.25 22,-297.25 28,-297.25 28,-297.25 248.8,-297.25 248.8,-297.25 254.8,-297.25 260.8,-303.25 260.8,-309.25 260.8,-309.25 260.8,-360.75 260.8,-360.75 260.8,-366.75 254.8,-372.75 248.8,-372.75"/>
<text xml:space="preserve" text-anchor="middle" x="138.4" y="-358.3" font-family="sans-serif" font-size="11.00">Match Fields</text>
<text xml:space="preserve" text-anchor="middle" x="138.4" y="-344.8" font-family="sans-serif" font-size="11.00">vrf_id = 10</text>
<text xml:space="preserve" text-anchor="middle" x="138.4" y="-331.3" font-family="sans-serif" font-size="11.00">tag_id = 100</text>
<text xml:space="preserve" text-anchor="middle" x="138.4" y="-317.8" font-family="sans-serif" font-size="11.00">class_id = &quot;taco&quot;</text>
<text xml:space="preserve" text-anchor="middle" x="138.4" y="-304.3" font-family="sans-serif" font-size="11.00">port_id = &quot;eth0&quot;</text>
</g>
<!-- InB1 -->
<g id="node11" class="node">
<title>InB1</title>
<path fill="#e8f0fe" stroke="#1a73e8" stroke-width="1.2" d="M529.6,-599.25C529.6,-599.25 308.8,-599.25 308.8,-599.25 302.8,-599.25 296.8,-593.25 296.8,-587.25 296.8,-587.25 296.8,-562.75 296.8,-562.75 296.8,-556.75 302.8,-550.75 308.8,-550.75 308.8,-550.75 529.6,-550.75 529.6,-550.75 535.6,-550.75 541.6,-556.75 541.6,-562.75 541.6,-562.75 541.6,-587.25 541.6,-587.25 541.6,-593.25 535.6,-599.25 529.6,-599.25"/>
<text xml:space="preserve" text-anchor="middle" x="419.2" y="-584.8" font-family="sans-serif" font-size="11.00" fill="#1a73e8">Table A → Table B</text>
<text xml:space="preserve" text-anchor="middle" x="419.2" y="-571.3" font-family="sans-serif" font-size="11.00" fill="#1a73e8">vrf_id → vrf_id : 10</text>
<text xml:space="preserve" text-anchor="middle" x="419.2" y="-557.8" font-family="sans-serif" font-size="11.00" fill="#1a73e8">opt_tag → tag_id : 100</text>
</g>
<!-- MatchB&#45;&gt;InB1 -->
<!-- InB8 -->
<g id="node4" class="node">
<title>InB8</title>
<path fill="#e0f2f1" stroke="#00796b" stroke-width="1.2" d="M529.6,-118.25C529.6,-118.25 308.8,-118.25 308.8,-118.25 302.8,-118.25 296.8,-112.25 296.8,-106.25 296.8,-106.25 296.8,-81.75 296.8,-81.75 296.8,-75.75 302.8,-69.75 308.8,-69.75 308.8,-69.75 529.6,-69.75 529.6,-69.75 535.6,-69.75 541.6,-75.75 541.6,-81.75 541.6,-81.75 541.6,-106.25 541.6,-106.25 541.6,-112.25 535.6,-118.25 529.6,-118.25"/>
<text xml:space="preserve" text-anchor="middle" x="419.2" y="-103.8" font-family="sans-serif" font-size="11.00" fill="#00796b">Group Table A → Table B</text>
<text xml:space="preserve" text-anchor="middle" x="419.2" y="-90.3" font-family="sans-serif" font-size="11.00" fill="#00796b">vrf_id → vrf_id : 10</text>
<text xml:space="preserve" text-anchor="middle" x="419.2" y="-76.8" font-family="sans-serif" font-size="11.00" fill="#00796b">route.port_id → port_id : &quot;eth0&quot;</text>
</g>
<!-- InB7 -->
<g id="node5" class="node">
<title>InB7</title>
<path fill="#fef7e0" stroke="#b06000" stroke-width="1.2" d="M529.6,-185.25C529.6,-185.25 308.8,-185.25 308.8,-185.25 302.8,-185.25 296.8,-179.25 296.8,-173.25 296.8,-173.25 296.8,-148.75 296.8,-148.75 296.8,-142.75 302.8,-136.75 308.8,-136.75 308.8,-136.75 529.6,-136.75 529.6,-136.75 535.6,-136.75 541.6,-142.75 541.6,-148.75 541.6,-148.75 541.6,-173.25 541.6,-173.25 541.6,-179.25 535.6,-185.25 529.6,-185.25"/>
<text xml:space="preserve" text-anchor="middle" x="419.2" y="-170.8" font-family="sans-serif" font-size="11.00" fill="#b06000">Group Table A → Table B</text>
<text xml:space="preserve" text-anchor="middle" x="419.2" y="-157.3" font-family="sans-serif" font-size="11.00" fill="#b06000">vrf_id → vrf_id : 10</text>
<text xml:space="preserve" text-anchor="middle" x="419.2" y="-143.8" font-family="sans-serif" font-size="11.00" fill="#b06000">set_class.class_id → class_id : &quot;taco&quot;</text>
</g>
<!-- InB6 -->
<g id="node6" class="node">
<title>InB6</title>
<path fill="#f1f3f4" stroke="#bdc1c6" stroke-width="1.2" d="M529.6,-252.25C529.6,-252.25 308.8,-252.25 308.8,-252.25 302.8,-252.25 296.8,-246.25 296.8,-240.25 296.8,-240.25 296.8,-215.75 296.8,-215.75 296.8,-209.75 302.8,-203.75 308.8,-203.75 308.8,-203.75 529.6,-203.75 529.6,-203.75 535.6,-203.75 541.6,-209.75 541.6,-215.75 541.6,-215.75 541.6,-240.25 541.6,-240.25 541.6,-246.25 535.6,-252.25 529.6,-252.25"/>
<text xml:space="preserve" text-anchor="middle" x="419.2" y="-237.8" font-family="sans-serif" font-size="11.00" fill="#5f6368">Table A → Table B</text>
<text xml:space="preserve" text-anchor="middle" x="419.2" y="-224.3" font-family="sans-serif" font-size="11.00" fill="#5f6368">vrf_id → vrf_id : 10</text>
<text xml:space="preserve" text-anchor="middle" x="419.2" y="-210.8" font-family="sans-serif" font-size="11.00" fill="#5f6368">route.port_id → port_id : &quot;eth0&quot;</text>
</g>
<!-- InB5 -->
<g id="node7" class="node">
<title>InB5</title>
<path fill="#f3e8fd" stroke="#7627bb" stroke-width="1.2" d="M529.6,-319.25C529.6,-319.25 308.8,-319.25 308.8,-319.25 302.8,-319.25 296.8,-313.25 296.8,-307.25 296.8,-307.25 296.8,-282.75 296.8,-282.75 296.8,-276.75 302.8,-270.75 308.8,-270.75 308.8,-270.75 529.6,-270.75 529.6,-270.75 535.6,-270.75 541.6,-276.75 541.6,-282.75 541.6,-282.75 541.6,-307.25 541.6,-307.25 541.6,-313.25 535.6,-319.25 529.6,-319.25"/>
<text xml:space="preserve" text-anchor="middle" x="419.2" y="-304.8" font-family="sans-serif" font-size="11.00" fill="#7627bb">Table A → Table B</text>
<text xml:space="preserve" text-anchor="middle" x="419.2" y="-291.3" font-family="sans-serif" font-size="11.00" fill="#7627bb">vrf_id → vrf_id : 10</text>
<text xml:space="preserve" text-anchor="middle" x="419.2" y="-277.8" font-family="sans-serif" font-size="11.00" fill="#7627bb">set_class.class_id → class_id : &quot;taco&quot;</text>
</g>
<!-- InB4 -->
<g id="node8" class="node">
<title>InB4</title>
<path fill="#e6f4ea" stroke="#137333" stroke-width="1.2" d="M529.6,-373C529.6,-373 308.8,-373 308.8,-373 302.8,-373 296.8,-367 296.8,-361 296.8,-361 296.8,-349 296.8,-349 296.8,-343 302.8,-337 308.8,-337 308.8,-337 529.6,-337 529.6,-337 535.6,-337 541.6,-343 541.6,-349 541.6,-349 541.6,-361 541.6,-361 541.6,-367 535.6,-373 529.6,-373"/>
<text xml:space="preserve" text-anchor="middle" x="419.2" y="-358.05" font-family="sans-serif" font-size="11.00" fill="#137333">Table A → Table B</text>
<text xml:space="preserve" text-anchor="middle" x="419.2" y="-344.55" font-family="sans-serif" font-size="11.00" fill="#137333">vrf_id → vrf_id : 10</text>
</g>
<!-- InB3 -->
<g id="node9" class="node">
<title>InB3</title>
<path fill="#f1f3f4" stroke="#bdc1c6" stroke-width="1.2" d="M529.6,-453C529.6,-453 308.8,-453 308.8,-453 302.8,-453 296.8,-447 296.8,-441 296.8,-441 296.8,-403 296.8,-403 296.8,-397 302.8,-391 308.8,-391 308.8,-391 529.6,-391 529.6,-391 535.6,-391 541.6,-397 541.6,-403 541.6,-403 541.6,-441 541.6,-441 541.6,-447 535.6,-453 529.6,-453"/>
<text xml:space="preserve" text-anchor="middle" x="419.2" y="-438.55" font-family="sans-serif" font-size="11.00" fill="#5f6368">Table A → Table B</text>
<text xml:space="preserve" text-anchor="middle" x="419.2" y="-425.05" font-family="sans-serif" font-size="11.00" fill="#5f6368">vrf_id → vrf_id : 10</text>
<text xml:space="preserve" text-anchor="middle" x="419.2" y="-411.55" font-family="sans-serif" font-size="11.00" fill="#5f6368">opt_tag → tag_id : 100</text>
<text xml:space="preserve" text-anchor="middle" x="419.2" y="-398.05" font-family="sans-serif" font-size="11.00" fill="#5f6368">route.port_id → port_id : &quot;eth0&quot;</text>
</g>
<!-- InB2 -->
<g id="node10" class="node">
<title>InB2</title>
<path fill="#f1f3f4" stroke="#bdc1c6" stroke-width="1.2" d="M529.6,-533C529.6,-533 308.8,-533 308.8,-533 302.8,-533 296.8,-527 296.8,-521 296.8,-521 296.8,-483 296.8,-483 296.8,-477 302.8,-471 308.8,-471 308.8,-471 529.6,-471 529.6,-471 535.6,-471 541.6,-477 541.6,-483 541.6,-483 541.6,-521 541.6,-521 541.6,-527 535.6,-533 529.6,-533"/>
<text xml:space="preserve" text-anchor="middle" x="419.2" y="-518.55" font-family="sans-serif" font-size="11.00" fill="#5f6368">Table A → Table B</text>
<text xml:space="preserve" text-anchor="middle" x="419.2" y="-505.05" font-family="sans-serif" font-size="11.00" fill="#5f6368">vrf_id → vrf_id : 10</text>
<text xml:space="preserve" text-anchor="middle" x="419.2" y="-491.55" font-family="sans-serif" font-size="11.00" fill="#5f6368">opt_tag → tag_id : 100</text>
<text xml:space="preserve" text-anchor="middle" x="419.2" y="-478.05" font-family="sans-serif" font-size="11.00" fill="#5f6368">set_class.class_id → class_id : &quot;taco&quot;</text>
</g>
</g>
</svg>
