<?xml version="1.0" encoding="UTF-8" standalone="no"?>
<!DOCTYPE svg PUBLIC "-//W3C//DTD SVG 1.1//EN"
 "http://www.w3.org/Graphics/SVG/1.1/DTD/svg11.dtd">
<!-- Generated by graphviz version 14.1.2 (0)
 -->
<!-- Title: ActionRef Pages: 1 -->
<svg width="566pt" height="152pt"
 viewBox="0.00 0.00 566.00 152.00" xmlns="http://www.w3.org/2000/svg" xmlns:xlink="http://www.w3.org/1999/xlink">
<g id="graph0" class="graph" transform="scale(1 1) rotate(0) translate(4 148)">
<title>ActionRef</title>
<polygon fill="white" stroke="none" points="-4,4 -4,-148 561.6,-148 561.6,4 -4,4"/>
<g id="clust1" class="cluster">
<title>cluster_entry_3</title>
<path fill="#f1f3f4" stroke="#bdc1c6" d="M20,-8C20,-8 256.8,-8 256.8,-8 262.8,-8 268.8,-14 268.8,-20 268.8,-20 268.8,-124 268.8,-124 268.8,-130 262.8,-136 256.8,-136 256.8,-136 20,-136 20,-136 14,-136 8,-130 8,-124 8,-124 8,-20 8,-20 8,-14 14,-8 20,-8"/>
<text xml:space="preserve" text-anchor="middle" x="138.4" y="-120.6" font-family="sans-serif" font-size="12.00" fill="#5f6368">Table Entry A</text>
</g>
<g id="clust2" class="cluster">
<title>cluster_out_3</title>
<path fill="#f8f9fa" stroke="#80868b" d="M300.8,-27C300.8,-27 537.6,-27 537.6,-27 543.6,-27 549.6,-33 549.6,-39 549.6,-39 549.6,-102 549.6,-102 549.6,-108 543.6,-114 537.6,-114 537.6,-114 300.8,-114 300.8,-114 294.8,-114 288.8,-108 288.8,-102 288.8,-102 288.8,-39 288.8,-39 288.8,-33 294.8,-27 300.8,-27"/>
<text xml:space="preserve" text-anchor="middle" x="419.2" y="-98.6" font-family="sans-serif" font-size="12.00" fill="#1a73e8">Generated outgoing references</text>
</g>
<!-- Action3 -->
<g id="node1" class="node">
<title>Action3</title>
<path fill="#ffffff" stroke="#5f6368" stroke-width="1.2" d="M248.8,-52C248.8,-52 28,-52 28,-52 22,-52 16,-46 16,-40 16,-40 16,-28 16,-28 16,-22 22,-16 28,-16 28,-16 248.8,-16 248.8,-16 254.8,-16 260.8,-22 260.8,-28 260.8,-28 260.8,-40 260.8,-40 260.8,-46 254.8,-52 248.8,-52"/>
<text xml:space="preserve" text-anchor="middle" x="138.4" y="-37.05" font-family="sans-serif" font-size="11.00">set_class</text>
<text xml:space="preserve" text-anchor="middle" x="138.4" y="-23.55" font-family="sans-serif" font-size="11.00">class_id = &quot;taco&quot;</text>
</g>
<!-- R3 -->
<g id="node3" class="node">
<title>R3</title>
<path fill="#f3e8fd" stroke="#7627bb" stroke-width="1.2" d="M529.6,-83.25C529.6,-83.25 308.8,-83.25 308.8,-83.25 302.8,-83.25 296.8,-77.25 296.8,-71.25 296.8,-71.25 296.8,-46.75 296.8,-46.75 296.8,-40.75 302.8,-34.75 308.8,-34.75 308.8,-34.75 529.6,-34.75 529.6,-34.75 535.6,-34.75 541.6,-40.75 541.6,-46.75 541.6,-46.75 541.6,-71.25 541.6,-71.25 541.6,-77.25 535.6,-83.25 529.6,-83.25"/>
<text xml:space="preserve" text-anchor="middle" x="419.2" y="-68.8" font-family="sans-serif" font-size="11.00" fill="#7627bb">Table A → Table B</text>
<text xml:space="preserve" text-anchor="middle" x="419.2" y="-55.3" font-family="sans-serif" font-size="11.00" fill="#7627bb">vrf_id → vrf_id : 10</text>
<text xml:space="preserve" text-anchor="middle" x="419.2" y="-41.8" font-family="sans-serif" font-size="11.00" fill="#7627bb">set_class.class_id → class_id : &quot;taco&quot;</text>
</g>
<!-- Action3&#45;&gt;R3 -->
<!-- Match3 -->
<g id="node2" class="node">
<title>Match3</title>
<path fill="#ffffff" stroke="#5f6368" stroke-width="1.2" d="M248.8,-106C248.8,-106 28,-106 28,-106 22,-106 16,-100 16,-94 16,-94 16,-82 16,-82 16,-76 22,-70 28,-70 28,-70 248.8,-70 248.8,-70 254.8,-70 260.8,-76 260.8,-82 260.8,-82 260.8,-94 260.8,-94 260.8,-100 254.8,-106 248.8,-106"/>
<text xml:space="preserve" text-anchor="middle" x="138.4" y="-91.05" font-family="sans-serif" font-size="11.00">Match Fields</text>
<text xml:space="preserve" text-anchor="middle" x="138.4" y="-77.55" font-family="sans-serif" font-size="11.00">vrf_id = 10</text>
</g>
<!-- Match3&#45;&gt;R3 -->
</g>
</svg>
