<?xml version="1.0" encoding="UTF-8" standalone="no"?>
<!DOCTYPE svg PUBLIC "-//W3C//DTD SVG 1.1//EN"
 "http://www.w3.org/Graphics/SVG/1.1/DTD/svg11.dtd">
<!-- Generated by graphviz version 14.1.2 (0)
 -->
<!-- Title: MinimalReachability Pages: 1 -->
<svg width="425pt" height="181pt"
 viewBox="0.00 0.00 425.00 181.00" xmlns="http://www.w3.org/2000/svg" xmlns:xlink="http://www.w3.org/1999/xlink">
<g id="graph0" class="graph" transform="scale(1 1) rotate(0) translate(4 177)">
<title>MinimalReachability</title>
<polygon fill="white" stroke="none" points="-4,4 -4,-177 421,-177 421,4 -4,4"/>
<!-- R_src -->
<g id="node1" class="node">
<title>R_src</title>
<ellipse fill="#1976d2" stroke="#0d47a1" cx="36" cy="-86" rx="36" ry="36"/>
<text xml:space="preserve" text-anchor="middle" x="36" y="-82.88" font-family="Roboto, Arial" font-size="10.00" fill="white">Root</text>
</g>
<!-- R_dst -->
<g id="node2" class="node">
<title>R_dst</title>
<ellipse fill="#1976d2" stroke="#0d47a1" cx="151" cy="-137" rx="36" ry="36"/>
<text xml:space="preserve" text-anchor="middle" x="151" y="-133.88" font-family="Roboto, Arial" font-size="10.00" fill="white">Root</text>
</g>
<!-- R_src&#45;&gt;R_dst -->
<g id="edge1" class="edge">
<title>R_src&#45;&gt;R_dst</title>
<path fill="none" stroke="#424242" d="M69.38,-100.61C82.03,-106.32 96.66,-112.93 109.96,-118.93"/>
<polygon fill="#424242" stroke="#424242" points="108.85,-121.11 116.23,-121.76 110.86,-116.65 108.85,-121.11"/>
</g>
<!-- R_iso -->
<g id="node3" class="node">
<title>R_iso</title>
<ellipse fill="#1976d2" stroke="#0d47a1" cx="151" cy="-36" rx="36" ry="36"/>
<text xml:space="preserve" text-anchor="middle" x="151" y="-32.88" font-family="Roboto, Arial" font-size="10.00" fill="white">Root</text>
</g>
<!-- R_src&#45;&gt;R_iso -->
<!-- N1 -->
<g id="node4" class="node">
<title>N1</title>
<ellipse fill="#2e7d32" stroke="#1b5e20" cx="266" cy="-137" rx="36" ry="36"/>
<text xml:space="preserve" text-anchor="middle" x="266" y="-133.88" font-family="Roboto, Arial" font-size="10.00" fill="white">Non&#45;Root</text>
</g>
<!-- R_dst&#45;&gt;N1 -->
<g id="edge2" class="edge">
<title>R_dst&#45;&gt;N1</title>
<path fill="none" stroke="#424242" d="M187.44,-137C198.17,-137 210.08,-137 221.28,-137"/>
<polygon fill="#424242" stroke="#424242" points="221.17,-139.45 228.17,-137 221.17,-134.55 221.17,-139.45"/>
</g>
<!-- G1 -->
<g id="node6" class="node">
<title>G1</title>
<ellipse fill="#ffebee" stroke="#c62828" stroke-dasharray="1,5" cx="266" cy="-36" rx="36" ry="36"/>
<text xml:space="preserve" text-anchor="middle" x="266" y="-39.25" font-family="Roboto, Arial" font-size="10.00" fill="#b71c1c">Non&#45;Root</text>
<text xml:space="preserve" text-anchor="middle" x="266" y="-26.5" font-family="Roboto, Arial" font-size="10.00" fill="#b71c1c">[Garbage]</text>
</g>
<!-- R_dst&#45;&gt;G1 -->
<!-- R_iso&#45;&gt;G1 -->
<!-- N2 -->
<g id="node5" class="node">
<title>N2</title>
<ellipse fill="#2e7d32" stroke="#1b5e20" cx="381" cy="-137" rx="36" ry="36"/>
<text xml:space="preserve" text-anchor="middle" x="381" y="-133.88" font-family="Roboto, Arial" font-size="10.00" fill="white">Non&#45;Root</text>
</g>
<!-- N1&#45;&gt;N2 -->
<g id="edge3" class="edge">
<title>N1&#45;&gt;N2</title>
<path fill="none" stroke="#424242" d="M302.44,-137C313.17,-137 325.08,-137 336.28,-137"/>
<polygon fill="#424242" stroke="#424242" points="336.17,-139.45 343.17,-137 336.17,-134.55 336.17,-139.45"/>
</g>
<!-- G2 -->
<g id="node7" class="node">
<title>G2</title>
<ellipse fill="#ffebee" stroke="#c62828" stroke-dasharray="1,5" cx="381" cy="-36" rx="36" ry="36"/>
<text xml:space="preserve" text-anchor="middle" x="381" y="-39.25" font-family="Roboto, Arial" font-size="10.00" fill="#b71c1c">Non&#45;Root</text>
<text xml:space="preserve" text-anchor="middle" x="381" y="-26.5" font-family="Roboto, Arial" font-size="10.00" fill="#b71c1c">[Garbage]</text>
</g>
<!-- N1&#45;&gt;G2 -->
<!-- G1&#45;&gt;G2 -->
<g id="edge4" class="edge">
<title>G1&#45;&gt;G2</title>
<path fill="none" stroke="#424242" d="M302.44,-36C313.17,-36 325.08,-36 336.28,-36"/>
<polygon fill="#424242" stroke="#424242" points="336.17,-38.45 343.17,-36 336.17,-33.55 336.17,-38.45"/>
</g>
</g>
</svg>
