<?xml version="1.0" encoding="UTF-8" standalone="no"?>
<!DOCTYPE svg PUBLIC "-//W3C//DTD SVG 1.1//EN"
 "http://www.w3.org/Graphics/SVG/1.1/DTD/svg11.dtd">
<!-- Generated by graphviz version 14.1.2 (0)
 -->
<!-- Title: OptOmitted Pages: 1 -->
<svg width="566pt" height="152pt"
 viewBox="0.00 0.00 566.00 152.00" xmlns="http://www.w3.org/2000/svg" xmlns:xlink="http://www.w3.org/1999/xlink">
<g id="graph0" class="graph" transform="scale(1 1) rotate(0) translate(4 148)">
<title>OptOmitted</title>
<polygon fill="white" stroke="none" points="-4,4 -4,-148 561.6,-148 561.6,4 -4,4"/>
<g id="clust1" class="cluster">
<title>cluster_entry_2</title>
<path fill="#f1f3f4" stroke="#bdc1c6" d="M20,-8C20,-8 256.8,-8 256.8,-8 262.8,-8 268.8,-14 268.8,-20 268.8,-20 268.8,-124 268.8,-124 268.8,-130 262.8,-136 256.8,-136 256.8,-136 20,-136 20,-136 14,-136 8,-130 8,-124 8,-124 8,-20 8,-20 8,-14 14,-8 20,-8"/>
<text xml:space="preserve" text-anchor="middle" x="138.4" y="-120.6" font-family="sans-serif" font-size="12.00" fill="#5f6368">Table Entry A</text>
</g>
<g id="clust2" class="cluster">
<title>cluster_out_2</title>
<path fill="#f8f9fa" stroke="#80868b" d="M300.8,-35C300.8,-35 537.6,-35 537.6,-35 543.6,-35 549.6,-41 549.6,-47 549.6,-47 549.6,-97 549.6,-97 549.6,-103 543.6,-109 537.6,-109 537.6,-109 300.8,-109 300.8,-109 294.8,-109 288.8,-103 288.8,-97 288.8,-97 288.8,-47 288.8,-47 288.8,-41 294.8,-35 300.8,-35"/>
<text xml:space="preserve" text-anchor="middle" x="419.2" y="-93.6" font-family="sans-serif" font-size="12.00" fill="#1a73e8">Generated outgoing references</text>
</g>
<!-- Action2 -->
<g id="node1" class="node">
<title>Action2</title>
<path fill="#ffffff" stroke="#5f6368" stroke-width="1.2" d="M248.8,-52C248.8,-52 28,-52 28,-52 22,-52 16,-46 16,-40 16,-40 16,-28 16,-28 16,-22 22,-16 28,-16 28,-16 248.8,-16 248.8,-16 254.8,-16 260.8,-22 260.8,-28 260.8,-28 260.8,-40 260.8,-40 260.8,-46 254.8,-52 248.8,-52"/>
<text xml:space="preserve" text-anchor="middle" x="138.4" y="-30.3" font-family="sans-serif" font-size="11.00">drop</text>
</g>
<!-- R2 -->
<g id="node3" class="node">
<title>R2</title>
<path fill="#e6f4ea" stroke="#137333" stroke-width="1.2" d="M529.6,-79C529.6,-79 308.8,-79 308.8,-79 302.8,-79 296.8,-73 296.8,-67 296.8,-67 296.8,-55 296.8,-55 296.8,-49 302.8,-43 308.8,-43 308.8,-43 529.6,-43 529.6,-43 535.6,-43 541.6,-49 541.6,-55 541.6,-55 541.6,-67 541.6,-67 541.6,-73 535.6,-79 529.6,-79"/>
<text xml:space="preserve" text-anchor="middle" x="419.2" y="-64.05" font-family="sans-serif" font-size="11.00" fill="#137333">Table A → Table B</text>
<text xml:space="preserve" text-anchor="middle" x="419.2" y="-50.55" font-family="sans-serif" font-size="11.00" fill="#137333">vrf_id → vrf_id : 10</text>
</g>
<!-- Action2&#45;&gt;R2 -->
<!-- Match2 -->
<g id="node2" class="node">
<title>Match2</title>
<path fill="#ffffff" stroke="#5f6368" stroke-width="1.2" d="M248.8,-106C248.8,-106 28,-106 28,-106 22,-106 16,-100 16,-94 16,-94 16,-82 16,-82 16,-76 22,-70 28,-70 28,-70 248.8,-70 248.8,-70 254.8,-70 260.8,-76 260.8,-82 260.8,-82 260.8,-94 260.8,-94 260.8,-100 254.8,-106 248.8,-106"/>
<text xml:space="preserve" text-anchor="middle" x="138.4" y="-91.05" font-family="sans-serif" font-size="11.00">Match Fields</text>
<text xml:space="preserve" text-anchor="middle" x="138.4" y="-77.55" font-family="sans-serif" font-size="11.00">vrf_id = 10</text>
</g>
<!-- Match2&#45;&gt;R2 -->
</g>
</svg>
