<?xml version="1.0" encoding="UTF-8" standalone="no"?>
<!DOCTYPE svg PUBLIC "-//W3C//DTD SVG 1.1//EN"
 "http://www.w3.org/Graphics/SVG/1.1/DTD/svg11.dtd">
<!-- Generated by graphviz version 14.1.2 (0)
 -->
<!-- Title: ActionSet Pages: 1 -->
<svg width="574pt" height="342pt"
 viewBox="0.00 0.00 574.00 342.00" xmlns="http://www.w3.org/2000/svg" xmlns:xlink="http://www.w3.org/1999/xlink">
<g id="graph0" class="graph" transform="scale(1 1) rotate(0) translate(4 338)">
<title>ActionSet</title>
<polygon fill="white" stroke="none" points="-4,4 -4,-338 569.6,-338 569.6,4 -4,4"/>
<g id="clust1" class="cluster">
<title>cluster_entry_4</title>
<path fill="#f1f3f4" stroke="#bdc1c6" d="M20,-8C20,-8 272.8,-8 272.8,-8 278.8,-8 284.8,-14 284.8,-20 284.8,-20 284.8,-314 284.8,-314 284.8,-320 278.8,-326 272.8,-326 272.8,-326 20,-326 20,-326 14,-326 8,-320 8,-314 8,-314 8,-20 8,-20 8,-14 14,-8 20,-8"/>
<text xml:space="preserve" text-anchor="middle" x="146.4" y="-310.6" font-family="sans-serif" font-size="12.00" fill="#5f6368">Table Entry A</text>
</g>
<g id="clust2" class="cluster">
<title>cluster_group_4</title>
<path fill="#e8eaed" stroke="#9aa0a6" d="M28,-16C28,-16 264.8,-16 264.8,-16 270.8,-16 276.8,-22 276.8,-28 276.8,-28 276.8,-240 276.8,-240 276.8,-246 270.8,-252 264.8,-252 264.8,-252 28,-252 28,-252 22,-252 16,-246 16,-240 16,-240 16,-28 16,-28 16,-22 22,-16 28,-16"/>
<text xml:space="preserve" text-anchor="middle" x="146.4" y="-237.55" font-family="sans-serif" font-size="11.00" fill="#5f6368">Group</text>
</g>
<g id="clust3" class="cluster">
<title>cluster_out_4</title>
<path fill="#f8f9fa" stroke="#80868b" d="M308.8,-33C308.8,-33 545.6,-33 545.6,-33 551.6,-33 557.6,-39 557.6,-45 557.6,-45 557.6,-296 557.6,-296 557.6,-302 551.6,-308 545.6,-308 545.6,-308 308.8,-308 308.8,-308 302.8,-308 296.8,-302 296.8,-296 296.8,-296 296.8,-45 296.8,-45 296.8,-39 302.8,-33 308.8,-33"/>
<text xml:space="preserve" text-anchor="middle" x="427.2" y="-292.6" font-family="sans-serif" font-size="12.00" fill="#1a73e8">Generated outgoing references</text>
</g>
<!-- Match4 -->
<g id="node1" class="node">
<title>Match4</title>
<path fill="#ffffff" stroke="#5f6368" stroke-width="1.2" d="M256.8,-296C256.8,-296 36,-296 36,-296 30,-296 24,-290 24,-284 24,-284 24,-272 24,-272 24,-266 30,-260 36,-260 36,-260 256.8,-260 256.8,-260 262.8,-260 268.8,-266 268.8,-272 268.8,-272 268.8,-284 268.8,-284 268.8,-290 262.8,-296 256.8,-296"/>
<text xml:space="preserve" text-anchor="middle" x="146.4" y="-281.05" font-family="sans-serif" font-size="11.00">Match Fields</text>
<text xml:space="preserve" text-anchor="middle" x="146.4" y="-267.55" font-family="sans-serif" font-size="11.00">vrf_id = 10</text>
</g>
<!-- R4a -->
<g id="node9" class="node">
<title>R4a</title>
<path fill="#fef7e0" stroke="#b06000" stroke-width="1.2" d="M537.6,-277.25C537.6,-277.25 316.8,-277.25 316.8,-277.25 310.8,-277.25 304.8,-271.25 304.8,-265.25 304.8,-265.25 304.8,-240.75 304.8,-240.75 304.8,-234.75 310.8,-228.75 316.8,-228.75 316.8,-228.75 537.6,-228.75 537.6,-228.75 543.6,-228.75 549.6,-234.75 549.6,-240.75 549.6,-240.75 549.6,-265.25 549.6,-265.25 549.6,-271.25 543.6,-277.25 537.6,-277.25"/>
<text xml:space="preserve" text-anchor="middle" x="427.2" y="-262.8" font-family="sans-serif" font-size="11.00" fill="#b06000">Group Table A → Table B</text>
<text xml:space="preserve" text-anchor="middle" x="427.2" y="-249.3" font-family="sans-serif" font-size="11.00" fill="#b06000">vrf_id → vrf_id : 10</text>
<text xml:space="preserve" text-anchor="middle" x="427.2" y="-235.8" font-family="sans-serif" font-size="11.00" fill="#b06000">set_class.class_id → class_id : &quot;taco&quot;</text>
</g>
<!-- Match4&#45;&gt;R4a -->
<!-- Act4d -->
<g id="node2" class="node">
<title>Act4d</title>
<path fill="#ffffff" stroke="#5f6368" stroke-width="1.2" d="M256.8,-60C256.8,-60 36,-60 36,-60 30,-60 24,-54 24,-48 24,-48 24,-36 24,-36 24,-30 30,-24 36,-24 36,-24 256.8,-24 256.8,-24 262.8,-24 268.8,-30 268.8,-36 268.8,-36 268.8,-48 268.8,-48 268.8,-54 262.8,-60 256.8,-60"/>
<text xml:space="preserve" text-anchor="middle" x="146.4" y="-38.3" font-family="sans-serif" font-size="11.00">drop (4)</text>
</g>
<!-- R4d -->
<g id="node6" class="node">
<title>R4d</title>
<path fill="#fce8e6" stroke="#c5221f" stroke-width="1.2" d="M537.6,-77C537.6,-77 316.8,-77 316.8,-77 310.8,-77 304.8,-71 304.8,-65 304.8,-65 304.8,-53 304.8,-53 304.8,-47 310.8,-41 316.8,-41 316.8,-41 537.6,-41 537.6,-41 543.6,-41 549.6,-47 549.6,-53 549.6,-53 549.6,-65 549.6,-65 549.6,-71 543.6,-77 537.6,-77"/>
<text xml:space="preserve" text-anchor="middle" x="427.2" y="-62.05" font-family="sans-serif" font-size="11.00" fill="#c5221f">Group Table A → Table B</text>
<text xml:space="preserve" text-anchor="middle" x="427.2" y="-48.55" font-family="sans-serif" font-size="11.00" fill="#c5221f">vrf_id → vrf_id : 10</text>
</g>
<!-- Act4d&#45;&gt;R4d -->
<!-- Act4c -->
<g id="node3" class="node">
<title>Act4c</title>
<path fill="#ffffff" stroke="#5f6368" stroke-width="1.2" d="M256.8,-114C256.8,-114 36,-114 36,-114 30,-114 24,-108 24,-102 24,-102 24,-90 24,-90 24,-84 30,-78 36,-78 36,-78 256.8,-78 256.8,-78 262.8,-78 268.8,-84 268.8,-90 268.8,-90 268.8,-102 268.8,-102 268.8,-108 262.8,-114 256.8,-114"/>
<text xml:space="preserve" text-anchor="middle" x="146.4" y="-99.05" font-family="sans-serif" font-size="11.00">route (3)</text>
<text xml:space="preserve" text-anchor="middle" x="146.4" y="-85.55" font-family="sans-serif" font-size="11.00">port_id = &quot;eth0&quot;</text>
</g>
<!-- Act4b -->
<g id="node4" class="node">
<title>Act4b</title>
<path fill="#ffffff" stroke="#5f6368" stroke-width="1.2" d="M256.8,-168C256.8,-168 36,-168 36,-168 30,-168 24,-162 24,-156 24,-156 24,-144 24,-144 24,-138 30,-132 36,-132 36,-132 256.8,-132 256.8,-132 262.8,-132 268.8,-138 268.8,-144 268.8,-144 268.8,-156 268.8,-156 268.8,-162 262.8,-168 256.8,-168"/>
<text xml:space="preserve" text-anchor="middle" x="146.4" y="-153.05" font-family="sans-serif" font-size="11.00">set_class (2)</text>
<text xml:space="preserve" text-anchor="middle" x="146.4" y="-139.55" font-family="sans-serif" font-size="11.00">class_id = &quot;salsa&quot;</text>
</g>
<!-- Act4a -->
<g id="node5" class="node">
<title>Act4a</title>
<path fill="#ffffff" stroke="#5f6368" stroke-width="1.2" d="M256.8,-222C256.8,-222 36,-222 36,-222 30,-222 24,-216 24,-210 24,-210 24,-198 24,-198 24,-192 30,-186 36,-186 36,-186 256.8,-186 256.8,-186 262.8,-186 268.8,-192 268.8,-198 268.8,-198 268.8,-210 268.8,-210 268.8,-216 262.8,-222 256.8,-222"/>
<text xml:space="preserve" text-anchor="middle" x="146.4" y="-207.05" font-family="sans-serif" font-size="11.00">set_class (1)</text>
<text xml:space="preserve" text-anchor="middle" x="146.4" y="-193.55" font-family="sans-serif" font-size="11.00">class_id = &quot;taco&quot;</text>
</g>
<!-- R4c -->
<g id="node7" class="node">
<title>R4c</title>
<path fill="#e0f2f1" stroke="#00796b" stroke-width="1.2" d="M537.6,-143.25C537.6,-143.25 316.8,-143.25 316.8,-143.25 310.8,-143.25 304.8,-137.25 304.8,-131.25 304.8,-131.25 304.8,-106.75 304.8,-106.75 304.8,-100.75 310.8,-94.75 316.8,-94.75 316.8,-94.75 537.6,-94.75 537.6,-94.75 543.6,-94.75 549.6,-100.75 549.6,-106.75 549.6,-106.75 549.6,-131.25 549.6,-131.25 549.6,-137.25 543.6,-143.25 537.6,-143.25"/>
<text xml:space="preserve" text-anchor="middle" x="427.2" y="-128.8" font-family="sans-serif" font-size="11.00" fill="#00796b">Group Table A → Table B</text>
<text xml:space="preserve" text-anchor="middle" x="427.2" y="-115.3" font-family="sans-serif" font-size="11.00" fill="#00796b">vrf_id → vrf_id : 10</text>
<text xml:space="preserve" text-anchor="middle" x="427.2" y="-101.8" font-family="sans-serif" font-size="11.00" fill="#00796b">route.port_id → port_id : &quot;eth0&quot;</text>
</g>
<!-- R4b -->
<g id="node8" class="node">
<title>R4b</title>
<path fill="#f1f3f4" stroke="#bdc1c6" stroke-width="1.2" d="M537.6,-210.25C537.6,-210.25 316.8,-210.25 316.8,-210.25 310.8,-210.25 304.8,-204.25 304.8,-198.25 304.8,-198.25 304.8,-173.75 304.8,-173.75 304.8,-167.75 310.8,-161.75 316.8,-161.75 316.8,-161.75 537.6,-161.75 537.6,-161.75 543.6,-161.75 549.6,-167.75 549.6,-173.75 549.6,-173.75 549.6,-198.25 549.6,-198.25 549.6,-204.25 543.6,-210.25 537.6,-210.25"/>
<text xml:space="preserve" text-anchor="middle" x="427.2" y="-195.8" font-family="sans-serif" font-size="11.00" fill="#5f6368">Group Table A → Table B</text>
<text xml:space="preserve" text-anchor="middle" x="427.2" y="-182.3" font-family="sans-serif" font-size="11.00" fill="#5f6368">vrf_id → vrf_id : 10</text>
<text xml:space="preserve" text-anchor="middle" x="427.2" y="-168.8" font-family="sans-serif" font-size="11.00" fill="#5f6368">set_class.class_id → class_id : &quot;salsa&quot;</text>
</g>
</g>
</svg>
