<?xml version="1.0" encoding="UTF-8" standalone="no"?>
<!DOCTYPE svg PUBLIC "-//W3C//DTD SVG 1.1//EN"
 "http://www.w3.org/Graphics/SVG/1.1/DTD/svg11.dtd">
<!-- Generated by graphviz version 14.1.2 (0)
 -->
<!-- Title: OptPresent Pages: 1 -->
<svg width="566pt" height="165pt"
 viewBox="0.00 0.00 566.00 165.00" xmlns="http://www.w3.org/2000/svg" xmlns:xlink="http://www.w3.org/1999/xlink">
<g id="graph0" class="graph" transform="scale(1 1) rotate(0) translate(4 161)">
<title>OptPresent</title>
<polygon fill="white" stroke="none" points="-4,4 -4,-161 561.6,-161 561.6,4 -4,4"/>
<g id="clust1" class="cluster">
<title>cluster_entry_1</title>
<path fill="#f1f3f4" stroke="#bdc1c6" d="M20,-8C20,-8 256.8,-8 256.8,-8 262.8,-8 268.8,-14 268.8,-20 268.8,-20 268.8,-137 268.8,-137 268.8,-143 262.8,-149 256.8,-149 256.8,-149 20,-149 20,-149 14,-149 8,-143 8,-137 8,-137 8,-20 8,-20 8,-14 14,-8 20,-8"/>
<text xml:space="preserve" text-anchor="middle" x="138.4" y="-133.6" font-family="sans-serif" font-size="12.00" fill="#5f6368">Table Entry A</text>
</g>
<g id="clust2" class="cluster">
<title>cluster_out_1</title>
<path fill="#f8f9fa" stroke="#80868b" d="M300.8,-33C300.8,-33 537.6,-33 537.6,-33 543.6,-33 549.6,-39 549.6,-45 549.6,-45 549.6,-108 549.6,-108 549.6,-114 543.6,-120 537.6,-120 537.6,-120 300.8,-120 300.8,-120 294.8,-120 288.8,-114 288.8,-108 288.8,-108 288.8,-45 288.8,-45 288.8,-39 294.8,-33 300.8,-33"/>
<text xml:space="preserve" text-anchor="middle" x="419.2" y="-104.6" font-family="sans-serif" font-size="12.00" fill="#1a73e8">Generated outgoing references</text>
</g>
<!-- Action1 -->
<g id="node1" class="node">
<title>Action1</title>
<path fill="#ffffff" stroke="#5f6368" stroke-width="1.2" d="M248.8,-52C248.8,-52 28,-52 28,-52 22,-52 16,-46 16,-40 16,-40 16,-28 16,-28 16,-22 22,-16 28,-16 28,-16 248.8,-16 248.8,-16 254.8,-16 260.8,-22 260.8,-28 260.8,-28 260.8,-40 260.8,-40 260.8,-46 254.8,-52 248.8,-52"/>
<text xml:space="preserve" text-anchor="middle" x="138.4" y="-30.3" font-family="sans-serif" font-size="11.00">drop</text>
</g>
<!-- R1 -->
<g id="node3" class="node">
<title>R1</title>
<path fill="#e8f0fe" stroke="#1a73e8" stroke-width="1.2" d="M529.6,-89.25C529.6,-89.25 308.8,-89.25 308.8,-89.25 302.8,-89.25 296.8,-83.25 296.8,-77.25 296.8,-77.25 296.8,-52.75 296.8,-52.75 296.8,-46.75 302.8,-40.75 308.8,-40.75 308.8,-40.75 529.6,-40.75 529.6,-40.75 535.6,-40.75 541.6,-46.75 541.6,-52.75 541.6,-52.75 541.6,-77.25 541.6,-77.25 541.6,-83.25 535.6,-89.25 529.6,-89.25"/>
<text xml:space="preserve" text-anchor="middle" x="419.2" y="-74.8" font-family="sans-serif" font-size="11.00" fill="#1a73e8">Table A → Table B</text>
<text xml:space="preserve" text-anchor="middle" x="419.2" y="-61.3" font-family="sans-serif" font-size="11.00" fill="#1a73e8">vrf_id → vrf_id : 10</text>
<text xml:space="preserve" text-anchor="middle" x="419.2" y="-47.8" font-family="sans-serif" font-size="11.00" fill="#1a73e8">opt_tag → tag_id : 100</text>
</g>
<!-- Action1&#45;&gt;R1 -->
<!-- Match1 -->
<g id="node2" class="node">
<title>Match1</title>
<path fill="#ffffff" stroke="#5f6368" stroke-width="1.2" d="M248.8,-118.25C248.8,-118.25 28,-118.25 28,-118.25 22,-118.25 16,-112.25 16,-106.25 16,-106.25 16,-81.75 16,-81.75 16,-75.75 22,-69.75 28,-69.75 28,-69.75 248.8,-69.75 248.8,-69.75 254.8,-69.75 260.8,-75.75 260.8,-81.75 260.8,-81.75 260.8,-106.25 260.8,-106.25 260.8,-112.25 254.8,-118.25 248.8,-118.25"/>
<text xml:space="preserve" text-anchor="middle" x="138.4" y="-103.8" font-family="sans-serif" font-size="11.00">Match Fields</text>
<text xml:space="preserve" text-anchor="middle" x="138.4" y="-90.3" font-family="sans-serif" font-size="11.00">vrf_id = 10</text>
<text xml:space="preserve" text-anchor="middle" x="138.4" y="-76.8" font-family="sans-serif" font-size="11.00">opt_tag = 100</text>
</g>
<!-- Match1&#45;&gt;R1 -->
</g>
</svg>
