<?xml version="1.0" encoding="UTF-8" standalone="no"?>
<!DOCTYPE svg PUBLIC "-//W3C//DTD SVG 1.1//EN"
 "http://www.w3.org/Graphics/SVG/1.1/DTD/svg11.dtd">
<!-- Generated by graphviz version 14.1.2 (0)
 -->
<!-- Title: ValidReference Pages: 1 -->
<svg width="374pt" height="108pt"
 viewBox="0.00 0.00 374.00 108.00" xmlns="http://www.w3.org/2000/svg" xmlns:xlink="http://www.w3.org/1999/xlink">
<g id="graph0" class="graph" transform="scale(1 1) rotate(0) translate(4 104)">
<title>ValidReference</title>
<polygon fill="white" stroke="none" points="-4,4 -4,-104 369.9,-104 369.9,4 -4,4"/>
<g id="clust1" class="cluster">
<title>cluster_valid</title>
<path fill="#e6f4ea" stroke="#137333" d="M20,-8C20,-8 345.9,-8 345.9,-8 351.9,-8 357.9,-14 357.9,-20 357.9,-20 357.9,-80 357.9,-80 357.9,-86 351.9,-92 345.9,-92 345.9,-92 20,-92 20,-92 14,-92 8,-86 8,-80 8,-80 8,-20 8,-20 8,-14 14,-8 20,-8"/>
<text xml:space="preserve" text-anchor="middle" x="182.95" y="-74.7" font-family="sans-serif" font-size="14.00">Valid State</text>
</g>
<!-- A1 -->
<g id="node1" class="node">
<title>A1</title>
<polygon fill="#f1f3f4" stroke="#5f6368" points="131.2,-58.25 16,-58.25 16,-15.75 131.2,-15.75 131.2,-58.25"/>
<text xml:space="preserve" text-anchor="middle" x="73.6" y="-40.95" font-family="sans-serif" font-size="14.00">Entry A</text>
<text xml:space="preserve" text-anchor="middle" x="73.6" y="-23.7" font-family="sans-serif" font-size="14.00">(Source)</text>
</g>
<!-- B1 -->
<g id="node2" class="node">
<title>B1</title>
<polygon fill="#f1f3f4" stroke="#5f6368" points="349.9,-58.25 234.7,-58.25 234.7,-15.75 349.9,-15.75 349.9,-58.25"/>
<text xml:space="preserve" text-anchor="middle" x="292.3" y="-40.95" font-family="sans-serif" font-size="14.00">Entry B</text>
<text xml:space="preserve" text-anchor="middle" x="292.3" y="-23.7" font-family="sans-serif" font-size="14.00">(Destination)</text>
</g>
<!-- A1&#45;&gt;B1 -->
<g id="edge1" class="edge">
<title>A1&#45;&gt;B1</title>
<path fill="none" stroke="#137333" d="M131.54,-37C159.54,-37 193.52,-37 222.92,-37"/>
<polygon fill="#137333" stroke="#137333" points="222.86,-40.5 232.86,-37 222.86,-33.5 222.86,-40.5"/>
<text xml:space="preserve" text-anchor="middle" x="182.95" y="-40.95" font-family="sans-serif" font-size="14.00" fill="#137333"> refers to </text>
</g>
</g>
</svg>
